<svg version="1.1" id="svg2" xml:space="preserve" viewBox="10.294180943600868 26.6696952 48.319624837310194 49.1394384" xmlns="http://www.w3.org/2000/svg" style="max-height: 500px" width="48.319624837310194" height="49.1394384"><metadata id="metadata8">image/svg+xml</metadata><defs id="defs6"><clipPath clipPathUnits="userSpaceOnUse" id="clipPath18"><path d="M 0,78.749 H 145.274 V 0 H 0 Z" id="path16"/></clipPath></defs><g id="g10" transform="matrix(1.3333333,0,0,-1.3333333,0,104.9988)"><g id="g12"><g id="g14" clip-path="url(#clipPath18)"><g id="g20" transform="translate(38.89,43.9292)"><path d="m 0,0 -1.98,-1.35 c 0.11,-0.65 0.16,-1.32 0.16,-2.01 0,-6.38 -4.67,-11.49 -11.05,-11.49 -2.36,0 -4.48,0.69 -6.22,1.88 l -1.86,-1.27 c 2.21,-1.69 4.99,-2.68 8.08,-2.68 7.58,0 13.27,5.98 13.27,13.56 C 0.4,-2.19 0.26,-1.07 0,0 m -12.87,10.2 c -7.59,0 -13.31,-5.98 -13.31,-13.56 0,-0.73 0.05,-1.45 0.16,-2.15 l 2.09,1.43 c -0.02,0.24 -0.03,0.48 -0.03,0.72 0,6.38 4.67,11.5 11.09,11.5 1.83,0 3.51,-0.42 4.98,-1.18 l 1.95,1.34 c -1.99,1.21 -4.35,1.9 -6.93,1.9" style="fill:#373535;fill-opacity:1;fill-rule:nonzero;stroke:none" id="path22"/></g><g id="g24" transform="translate(52.35,41.0092)"><path d="m 0,0 v 10.73 h 5.87 c 2.19,0 3.61,-0.18 4.96,-1.11 1.35,-0.87 2.15,-2.44 2.15,-4.3 C 12.98,3.53 12.18,2 10.83,1.09 9.48,0.18 8.02,0 6.05,0 Z m 8.46,-1.75 c 4.12,0.51 6.75,3.31 6.75,7.14 0,2.56 -1.13,4.63 -2.88,5.85 -1.72,1.19 -3.69,1.52 -6.42,1.52 H -2.22 V -13.63 H 0 v 11.66 h 5.94 l 8.36,-11.66 h 2.66 z" style="fill:#373535;fill-opacity:1;fill-rule:nonzero;stroke:none" id="path26"/></g><g id="g28" transform="translate(89.7,30.5392)"><path d="m 0,0 c -1.28,-0.88 -2.78,-1.16 -5.22,-1.16 h -5.87 V 9.41 h 6.93 C -0.55,9.41 2.07,7.48 2.07,4.16 2.07,2.3 1.24,0.87 0,0 m -11.09,21.22 h 5.36 c 2.01,0 3.46,-0.18 4.67,-1.01 1.2,-0.81 2.04,-2.09 2.04,-3.98 0,-2.95 -2.33,-4.89 -5.62,-4.89 h -6.45 z M -0.88,10.54 v 0.07 c 2.55,0.92 4.12,3.11 4.12,5.85 0,2.39 -1.17,4.26 -2.77,5.35 -1.6,1.09 -3.43,1.42 -6.09,1.42 h -7.7 V -3.16 h 8.14 c 3.06,0 4.92,0.39 6.67,1.63 1.71,1.25 2.84,3.18 2.84,5.62 0,3.28 -2,5.69 -5.21,6.45" style="fill:#373535;fill-opacity:1;fill-rule:nonzero;stroke:none" id="path30"/></g><path d="m 102.39,27.379 h 2.22 v 26.39 h -2.22 z" style="fill:#373535;fill-opacity:1;fill-rule:nonzero;stroke:none" id="path32"/><g id="g34" transform="translate(111.87,53.7692)"><path d="m 0,0 v -2.03 h 9.15 v -24.36 h 2.23 v 24.36 h 9.15 V 0 Z" style="fill:#373535;fill-opacity:1;fill-rule:nonzero;stroke:none" id="path36"/></g><g id="g38" transform="translate(40.06,49.6292)"><path d="m 0,0 v -0.01 l -2.69,-1.88 -1.81,-1.26 -18.46,-12.87 -1.79,-1.24 -3.45,-2.41 3.45,2.42 1.79,1.24 18.46,12.87 1.81,1.26 z" style="fill:#ffffff;fill-opacity:1;fill-rule:nonzero;stroke:none" id="path40"/></g><g id="g42" transform="translate(41.62,50.7092)"><path d="m 0,0 -1.55,-1.07 -0.01,-0.01 -2.69,-1.88 -1.81,-1.26 -18.46,-12.87 -1.79,-1.24 -3.45,-2.42 -0.55,0.79 v 0.01 l -0.02,0.02 -0.57,0.82 3.54,2.47 1.82,1.27 18.36,12.8 1.77,1.24 4.26,2.97 0.55,-0.78 V 0.85 l 0.02,-0.03 h 0.01 z" style="fill:#373535;fill-opacity:1;fill-rule:nonzero;stroke:none" id="path44"/></g></g></g></g></svg>